<svg width="151" height="151" viewBox="0 0 151 151" fill="none" xmlns="http://www.w3.org/2000/svg">
<path d="M12.92 131.552V129.576C16.04 129.507 18.64 128.744 20.72 127.288C22.8693 125.832 24.464 123.405 25.504 120.008C26.6133 116.68 27.168 112.208 27.168 106.592V49.392C27.168 46.8267 26.96 44.9547 26.544 43.776C26.128 42.528 25.296 41.696 24.048 41.28C22.8693 40.7947 21.1013 40.5173 18.744 40.448V38.368C20.2 38.4373 22.1067 38.5067 24.464 38.576C26.8213 38.6453 29.2827 38.68 31.848 38.68C34.4133 38.68 36.8747 38.6453 39.232 38.576C41.6587 38.5067 43.6693 38.4373 45.264 38.368V40.448C42.9067 40.5173 41.104 40.7947 39.856 41.28C38.6773 41.696 37.88 42.528 37.464 43.776C37.048 44.9547 36.84 46.8267 36.84 49.392V87.456C36.84 90.2987 36.8053 93.384 36.736 96.712C36.6667 100.04 36.4933 103.264 36.216 106.384C36.008 109.504 35.6267 112.243 35.072 114.6C33.8933 119.453 31.3973 123.475 27.584 126.664C23.84 129.923 18.952 131.552 12.92 131.552Z" fill="url(#paint0_linear_3_27)"/>
<path d="M143.448 38.032V39.952C142.232 40.208 141.016 41.008 139.8 42.352C138.584 43.632 137.24 45.68 135.768 48.496L116.376 86.896H114.744L92.28 45.424C91 43.056 89.912 41.584 89.016 41.008C88.184 40.368 87.416 40.048 86.712 40.048V38.032C87.992 38.096 89.304 38.16 90.648 38.224C92.056 38.288 93.56 38.32 95.16 38.32C97.272 38.32 99.512 38.32 101.88 38.32C104.312 38.256 106.552 38.16 108.6 38.032V40.048C107 40.048 105.592 40.24 104.376 40.624C103.16 41.008 102.36 41.712 101.976 42.736C101.592 43.76 101.88 45.2 102.84 47.056L119.064 78.16L118.296 78.736L131.064 53.296C132.856 49.776 133.72 47.056 133.656 45.136C133.656 43.216 132.92 41.904 131.448 41.2C129.976 40.432 127.896 40.016 125.208 39.952V38.032C127.064 38.096 128.952 38.16 130.872 38.224C132.792 38.288 134.584 38.32 136.248 38.32C137.912 38.32 139.288 38.288 140.376 38.224C141.464 38.16 142.488 38.096 143.448 38.032ZM120.696 76.816V95.824C120.696 98.128 120.888 99.856 121.272 101.008C121.656 102.16 122.392 102.928 123.48 103.312C124.632 103.696 126.296 103.952 128.472 104.08V106C127 105.872 125.144 105.808 122.904 105.808C120.728 105.744 118.52 105.712 116.28 105.712C113.784 105.712 111.448 105.744 109.272 105.808C107.096 105.808 105.336 105.872 103.992 106V104.08C106.168 103.952 107.8 103.696 108.888 103.312C110.04 102.928 110.808 102.16 111.192 101.008C111.576 99.856 111.768 98.128 111.768 95.824V76.144L116.952 82.096L120.696 76.816Z" fill="url(#paint1_linear_3_27)"/>
<path d="M64.42 63.88C65.94 63.88 67.2 64.06 68.2 64.42C69.2 64.74 70.02 65.16 70.66 65.68C71.18 66.08 71.6 66.52 71.92 67C72.24 67.48 72.48 67.96 72.64 68.44C72.8 68.92 72.88 69.38 72.88 69.82C72.88 70.82 72.52 71.6 71.8 72.16C71.12 72.72 70.36 73 69.52 73C68.72 73 68 72.74 67.36 72.22C66.72 71.7 66.4 70.96 66.4 70C66.4 69.12 66.7 68.38 67.3 67.78C67.9 67.14 68.66 66.78 69.58 66.7C69.42 66.18 68.92 65.74 68.08 65.38C67.28 64.98 66.26 64.78 65.02 64.78C62.98 64.78 61.3 65.4 59.98 66.64C58.7 67.84 58.06 69.6 58.06 71.92C58.06 73.04 58.26 74.18 58.66 75.34C59.1 76.5 59.92 77.64 61.12 78.76C61.8 78.64 62.5 78.56 63.22 78.52C63.94 78.44 64.48 78.4 64.84 78.4C65.56 78.4 66.14 78.52 66.58 78.76C67.02 79 67.24 79.34 67.24 79.78C67.24 80.14 67.08 80.42 66.76 80.62C66.48 80.82 66.08 80.92 65.56 80.92C64.8 80.92 64 80.76 63.16 80.44C62.32 80.08 61.66 79.8 61.18 79.6C58.86 80.28 56.98 81.4 55.54 82.96C54.1 84.48 53.38 86.64 53.38 89.44C53.38 92.2 54.1 94.54 55.54 96.46C56.98 98.38 58.9 99.86 61.3 100.9C63.74 101.9 66.46 102.4 69.46 102.4C71.58 102.4 73.58 102.16 75.46 101.68C77.38 101.16 79.06 100.42 80.5 99.46C81.98 98.5 83.14 97.36 83.98 96.04C84.82 94.68 85.24 93.14 85.24 91.42C85.24 90.66 85.08 89.7 84.76 88.54C84.44 87.34 83.78 86.18 82.78 85.06C81.78 83.9 80.24 83 78.16 82.36L78.88 81.76C81.8 82.64 83.88 84.06 85.12 86.02C86.36 87.94 86.98 90.1 86.98 92.5C86.98 94.9 86.26 97.2 84.82 99.4C83.38 101.6 81.3 103.4 78.58 104.8C75.86 106.16 72.56 106.84 68.68 106.84C66.08 106.84 63.6 106.5 61.24 105.82C58.92 105.14 56.86 104.16 55.06 102.88C53.26 101.56 51.84 99.98 50.8 98.14C49.76 96.3 49.24 94.22 49.24 91.9C49.24 89.74 49.66 87.9 50.5 86.38C51.34 84.82 52.38 83.54 53.62 82.54C54.86 81.54 56.1 80.78 57.34 80.26C58.58 79.7 59.58 79.32 60.34 79.12C59.02 78.52 57.9 77.82 56.98 77.02C56.1 76.18 55.42 75.28 54.94 74.32C54.5 73.32 54.28 72.34 54.28 71.38C54.28 70.42 54.5 69.5 54.94 68.62C55.38 67.7 56.02 66.88 56.86 66.16C57.7 65.44 58.74 64.88 59.98 64.48C61.26 64.08 62.74 63.88 64.42 63.88ZM86.26 62.68C88.74 62.68 90.82 63.4 92.5 64.84C94.18 66.24 95.02 68.22 95.02 70.78C95.02 72.14 94.76 73.36 94.24 74.44C93.76 75.48 93.08 76.4 92.2 77.2C91.36 78 90.4 78.66 89.32 79.18C88.4 79.62 87.18 80.1 85.66 80.62C84.18 81.14 82.58 81.66 80.86 82.18C79.18 82.7 77.56 83.22 76 83.74C74.48 84.22 73.24 84.64 72.28 85C70.8 85.56 69.54 86.26 68.5 87.1C67.5 87.9 67 88.94 67 90.22C67 91.26 67.3 92.14 67.9 92.86C68.5 93.58 69.22 94.12 70.06 94.48C70.94 94.84 71.76 95.02 72.52 95.02C72.88 95.02 73.32 94.98 73.84 94.9C74.4 94.78 74.9 94.62 75.34 94.42C75.78 94.22 76.04 93.98 76.12 93.7C75.48 93.58 74.84 93.3 74.2 92.86C73.6 92.38 73.3 91.64 73.3 90.64C73.3 89.68 73.62 88.92 74.26 88.36C74.9 87.8 75.68 87.52 76.6 87.52C77.56 87.52 78.32 87.82 78.88 88.42C79.48 89.02 79.78 89.8 79.78 90.76C79.78 91.88 79.4 92.84 78.64 93.64C77.92 94.4 77 94.98 75.88 95.38C74.8 95.74 73.72 95.92 72.64 95.92C71.52 95.92 70.38 95.68 69.22 95.2C68.06 94.72 67.1 93.98 66.34 92.98C65.58 91.94 65.2 90.58 65.2 88.9C65.2 87.5 65.5 86.26 66.1 85.18C66.74 84.1 67.68 83.14 68.92 82.3C70.16 81.46 71.68 80.74 73.48 80.14C74.68 79.74 76.14 79.3 77.86 78.82C79.58 78.34 81.34 77.82 83.14 77.26C84.98 76.7 86.64 76.08 88.12 75.4C90.12 74.48 91.48 73.54 92.2 72.58C92.92 71.62 93.28 70.64 93.28 69.64C93.28 68.48 92.96 67.46 92.32 66.58C91.68 65.66 90.82 64.94 89.74 64.42C88.7 63.86 87.56 63.58 86.32 63.58C85.84 63.58 85.44 63.62 85.12 63.7C84.8 63.78 84.6 63.92 84.52 64.12C85.08 64.4 85.5 64.8 85.78 65.32C86.06 65.84 86.2 66.36 86.2 66.88C86.2 67.72 85.86 68.42 85.18 68.98C84.54 69.54 83.76 69.82 82.84 69.82C82.08 69.82 81.36 69.58 80.68 69.1C80 68.58 79.66 67.82 79.66 66.82C79.66 65.78 80 64.96 80.68 64.36C81.4 63.76 82.26 63.34 83.26 63.1C84.3 62.82 85.3 62.68 86.26 62.68Z" fill="url(#paint2_linear_3_27)"/>
<path d="M146.501 74.977C145.505 96.6313 138.165 115.382 125.641 128.277C113.127 141.163 95.4006 148.241 73.5396 146.502C51.6379 144.759 33.6306 136.799 21.1027 124.333C8.57778 111.87 1.5 94.8754 1.5 75C1.5 35.2495 30.7966 1.57948 74.478 3.49953C96.3861 4.46251 114.886 11.5553 127.654 23.774C140.415 35.9854 147.495 53.3569 146.501 74.977Z" stroke="url(#paint3_linear_3_27)"/>
<path d="M27.9179 22.3492C44.6125 8.9985 61.6392 1.13243 78.545 1.33717C95.4313 1.54167 112.302 9.80054 128.698 28.9239C145.094 48.0484 150.758 65.7725 149.521 81.9116C148.282 98.0646 140.123 112.716 128.702 125.669C117.328 138.57 98.912 148.091 79.3801 149.311C59.8698 150.53 39.2445 143.467 23.3939 123.192C7.47581 102.83 0.33114 84.2562 1.27744 67.4883C2.22291 50.7351 11.2522 35.6767 27.9179 22.3492Z" stroke="url(#paint4_linear_3_27)"/>
<path d="M9.96973 102.329C4.24852 86.6575 2.38873 67.7623 6.79626 50.9393C11.1993 34.1335 21.8515 19.4006 41.1796 11.9667C60.5787 4.50548 82.7636 3.70531 101.443 9.10181C120.124 14.4989 135.228 26.0674 140.616 43.2881C146.051 60.6597 148.383 81.646 143.031 100.506C137.687 119.338 124.676 136.084 99.3336 145.029C73.9519 153.987 54.4884 151.107 39.9501 142.137C25.3904 133.153 15.6966 118.015 9.96973 102.329Z" stroke="url(#paint5_linear_3_27)"/>
<defs>
<linearGradient id="paint0_linear_3_27" x1="18" y1="8" x2="54.5" y2="154" gradientUnits="userSpaceOnUse">
<stop stop-color="#6A96AE"/>
<stop offset="1" stop-color="#445259"/>
</linearGradient>
<linearGradient id="paint1_linear_3_27" x1="24.5" y1="20" x2="136.5" y2="152" gradientUnits="userSpaceOnUse">
<stop stop-color="#6A96AE"/>
<stop offset="1" stop-color="#445259"/>
</linearGradient>
<linearGradient id="paint2_linear_3_27" x1="23" y1="20" x2="132" y2="144" gradientUnits="userSpaceOnUse">
<stop stop-color="#6A96AE"/>
<stop offset="1" stop-color="#445259"/>
</linearGradient>
<linearGradient id="paint3_linear_3_27" x1="37" y1="5.5" x2="126" y2="152.5" gradientUnits="userSpaceOnUse">
<stop stop-color="#6A96AE"/>
<stop offset="1" stop-color="#445259"/>
</linearGradient>
<linearGradient id="paint4_linear_3_27" x1="39.5" y1="0.999999" x2="124.5" y2="150" gradientUnits="userSpaceOnUse">
<stop stop-color="#6A96AE"/>
<stop offset="1" stop-color="#445259"/>
</linearGradient>
<linearGradient id="paint5_linear_3_27" x1="26.5" y1="5" x2="122" y2="151" gradientUnits="userSpaceOnUse">
<stop stop-color="#6A96AE"/>
<stop offset="1" stop-color="#445259"/>
</linearGradient>
</defs>
</svg>
